<svg 
    t="1703215101359" 
    class="icon" 
    viewBox="0 0 1024 1024" 
    version="1.1" 
    xmlns="http://www.w3.org/2000/svg" 
    p-id="13625" 
    width="200" 
    height="200">
<path 
    d="
        M596.545641 
        273.749333l229.402256 
        163.84a84.388103 
        84.388103 
        0 
        0 
        1 
        0 
        137.321026L543.770256 
        776.480821a336.292103 
        336.292103 
        0 
        0 
        1-88.641641-228.010667c0-113.243897 
        55.794872-213.464615 
        141.39077-274.694564z
       " 
    fill="#FE8D1B" 
    p-id="13626">
</path>
<path 
    d="
        M240.718769 
        7.351795A116.027077 
        116.027077 
        0 
        0 
        0 
        124.717949 
        123.378872v765.768205a116.027077 
        116.027077 
        0 
        0 
        0 
        183.453538 
        94.418051l536.20841-382.897231a116.027077 
        116.027077 
        0 
        0 
        0 
        0-188.809846L308.145231 
        28.960821A116.027077 
        116.027077 
        0 
        0 
        0 
        240.718769 
        7.351795z
        m0 
        63.277949c11.001436 
        0 
        21.714051 
        3.413333 
        30.641231 
        9.819897l536.20841 
        382.897231a52.722872 52.722872 
        0 
        0 
        1 
        0 
        85.832205L271.36 
        932.076308a52.722872 
        52.722872 
        0 
        0 
        1-83.364103-42.929231V123.405128c0-29.144615 
        23.604513-52.749128 
        52.722872-52.749128z
    " 
    fill="#111C45" 
    p-id="13627"
    >
</path></svg>